<?xml version="1.0" encoding="UTF-8" standalone="no"?>
<!DOCTYPE svg PUBLIC "-//W3C//DTD SVG 1.1//EN"
 "http://www.w3.org/Graphics/SVG/1.1/DTD/svg11.dtd">
<!-- Generated by graphviz version 12.2.1 (20241206.2353)
 -->
<!-- Title: FileSystem Pages: 1 -->
<svg width="534pt" height="1107pt"
 viewBox="0.00 0.00 534.00 1107.20" xmlns="http://www.w3.org/2000/svg" xmlns:xlink="http://www.w3.org/1999/xlink">
<g id="graph0" class="graph" transform="scale(1 1) rotate(0) translate(4 1103.2)">
<title>FileSystem</title>
<polygon fill="white" stroke="none" points="-4,4 -4,-1103.2 530,-1103.2 530,4 -4,4"/>
<!-- 0&#45;0 -->
<g id="node1" class="node">
<title>0&#45;0</title>
<polygon fill="lightyellow" stroke="black" points="180,-1099.2 177,-1103.2 156,-1103.2 153,-1099.2 0,-1099.2 0,-1045.2 180,-1045.2 180,-1099.2"/>
<text text-anchor="middle" x="90" y="-1067.15" font-family="monospace" font-size="14.00">./sympleDir</text>
</g>
<!-- 1&#45;0 -->
<g id="node2" class="node">
<title>1&#45;0</title>
<ellipse fill="black" stroke="black" cx="90" cy="-994.8" rx="1.08" ry="1.08"/>
</g>
<!-- 0&#45;0&#45;&gt;1&#45;0 -->
<g id="edge1" class="edge">
<title>0&#45;0&#45;&gt;1&#45;0</title>
<path fill="none" stroke="black" d="M90,-1044.83C90,-1024.44 90,-999.19 90,-996.11"/>
</g>
<!-- 1&#45;1 -->
<g id="node3" class="node">
<title>1&#45;1</title>
<polygon fill="lightblue" stroke="black" points="253,-1009.2 109,-1009.2 109,-980.4 253,-980.4 253,-1009.2"/>
<text text-anchor="middle" x="181" y="-989.75" font-family="monospace" font-size="14.00">a&#45;root</text>
</g>
<!-- 1&#45;0&#45;&gt;1&#45;1 -->
<g id="edge2" class="edge">
<title>1&#45;0&#45;&gt;1&#45;1</title>
<path fill="none" stroke="black" d="M91.42,-994.8C97.14,-994.8 102.85,-994.8 108.57,-994.8"/>
</g>
<!-- 2&#45;0 -->
<g id="node4" class="node">
<title>2&#45;0</title>
<ellipse fill="black" stroke="black" cx="90" cy="-923.9" rx="1.08" ry="1.08"/>
</g>
<!-- 1&#45;0&#45;&gt;2&#45;0 -->
<g id="edge3" class="edge">
<title>1&#45;0&#45;&gt;2&#45;0</title>
<path fill="none" stroke="black" d="M90,-993.36C90,-987.77 90,-930.64 90,-925.3"/>
</g>
<!-- 2&#45;1 -->
<g id="node5" class="node">
<title>2&#45;1</title>
<polygon fill="lightyellow" stroke="black" points="253,-944.4 250,-948.4 229,-948.4 226,-944.4 109,-944.4 109,-903.4 253,-903.4 253,-944.4"/>
<text text-anchor="middle" x="181" y="-927.1" font-family="monospace" font-size="14.00">b</text>
<text text-anchor="middle" x="181" y="-910.6" font-family="monospace" font-size="14.00">(4)</text>
</g>
<!-- 2&#45;0&#45;&gt;2&#45;1 -->
<g id="edge4" class="edge">
<title>2&#45;0&#45;&gt;2&#45;1</title>
<path fill="none" stroke="black" d="M91.42,-923.9C97.14,-923.9 102.85,-923.9 108.57,-923.9"/>
</g>
<!-- 3&#45;0 -->
<g id="node6" class="node">
<title>3&#45;0</title>
<ellipse fill="black" stroke="black" cx="90" cy="-853" rx="1.08" ry="1.08"/>
</g>
<!-- 2&#45;0&#45;&gt;3&#45;0 -->
<g id="edge5" class="edge">
<title>2&#45;0&#45;&gt;3&#45;0</title>
<path fill="none" stroke="black" d="M90,-922.46C90,-916.87 90,-859.74 90,-854.4"/>
</g>
<!-- 3&#45;1 -->
<g id="node7" class="node">
<title>3&#45;1</title>
<ellipse fill="black" stroke="black" cx="181" cy="-853" rx="1.08" ry="1.08"/>
</g>
<!-- 2&#45;1&#45;&gt;3&#45;1 -->
<g id="edge6" class="edge">
<title>2&#45;1&#45;&gt;3&#45;1</title>
<path fill="none" stroke="black" d="M181,-902.97C181,-883.89 181,-857.55 181,-854.33"/>
</g>
<!-- 4&#45;0 -->
<g id="node9" class="node">
<title>4&#45;0</title>
<ellipse fill="black" stroke="black" cx="90" cy="-788.2" rx="1.08" ry="1.08"/>
</g>
<!-- 3&#45;0&#45;&gt;4&#45;0 -->
<g id="edge8" class="edge">
<title>3&#45;0&#45;&gt;4&#45;0</title>
<path fill="none" stroke="black" d="M90,-851.6C90,-846.42 90,-792.72 90,-789.36"/>
</g>
<!-- 3&#45;2 -->
<g id="node8" class="node">
<title>3&#45;2</title>
<polygon fill="lightblue" stroke="black" points="344,-867.4 200,-867.4 200,-838.6 344,-838.6 344,-867.4"/>
<text text-anchor="middle" x="272" y="-847.95" font-family="monospace" font-size="14.00">a&#45;file</text>
</g>
<!-- 3&#45;1&#45;&gt;3&#45;2 -->
<g id="edge7" class="edge">
<title>3&#45;1&#45;&gt;3&#45;2</title>
<path fill="none" stroke="black" d="M182.42,-853C188.14,-853 193.85,-853 199.57,-853"/>
</g>
<!-- 4&#45;1 -->
<g id="node10" class="node">
<title>4&#45;1</title>
<ellipse fill="black" stroke="black" cx="181" cy="-788.2" rx="1.08" ry="1.08"/>
</g>
<!-- 3&#45;1&#45;&gt;4&#45;1 -->
<g id="edge9" class="edge">
<title>3&#45;1&#45;&gt;4&#45;1</title>
<path fill="none" stroke="black" d="M181,-851.6C181,-846.42 181,-792.72 181,-789.36"/>
</g>
<!-- 5&#45;0 -->
<g id="node12" class="node">
<title>5&#45;0</title>
<ellipse fill="black" stroke="black" cx="90" cy="-723.4" rx="1.08" ry="1.08"/>
</g>
<!-- 4&#45;0&#45;&gt;5&#45;0 -->
<g id="edge11" class="edge">
<title>4&#45;0&#45;&gt;5&#45;0</title>
<path fill="none" stroke="black" d="M90,-786.8C90,-781.62 90,-727.92 90,-724.56"/>
</g>
<!-- 4&#45;2 -->
<g id="node11" class="node">
<title>4&#45;2</title>
<polygon fill="lightblue" stroke="black" points="344,-802.6 200,-802.6 200,-773.8 344,-773.8 344,-802.6"/>
<text text-anchor="middle" x="272" y="-783.15" font-family="monospace" font-size="14.00">c&#45;file</text>
</g>
<!-- 4&#45;1&#45;&gt;4&#45;2 -->
<g id="edge10" class="edge">
<title>4&#45;1&#45;&gt;4&#45;2</title>
<path fill="none" stroke="black" d="M182.42,-788.2C188.14,-788.2 193.85,-788.2 199.57,-788.2"/>
</g>
<!-- 5&#45;1 -->
<g id="node13" class="node">
<title>5&#45;1</title>
<ellipse fill="black" stroke="black" cx="181" cy="-723.4" rx="1.08" ry="1.08"/>
</g>
<!-- 4&#45;1&#45;&gt;5&#45;1 -->
<g id="edge12" class="edge">
<title>4&#45;1&#45;&gt;5&#45;1</title>
<path fill="none" stroke="black" d="M181,-786.8C181,-781.62 181,-727.92 181,-724.56"/>
</g>
<!-- 6&#45;0 -->
<g id="node15" class="node">
<title>6&#45;0</title>
<ellipse fill="black" stroke="black" cx="90" cy="-652.5" rx="1.08" ry="1.08"/>
</g>
<!-- 5&#45;0&#45;&gt;6&#45;0 -->
<g id="edge14" class="edge">
<title>5&#45;0&#45;&gt;6&#45;0</title>
<path fill="none" stroke="black" d="M90,-721.96C90,-716.37 90,-659.24 90,-653.9"/>
</g>
<!-- 5&#45;2 -->
<g id="node14" class="node">
<title>5&#45;2</title>
<polygon fill="lightblue" stroke="black" points="344,-737.8 200,-737.8 200,-709 344,-709 344,-737.8"/>
<text text-anchor="middle" x="272" y="-718.35" font-family="monospace" font-size="14.00">c1&#45;file</text>
</g>
<!-- 5&#45;1&#45;&gt;5&#45;2 -->
<g id="edge13" class="edge">
<title>5&#45;1&#45;&gt;5&#45;2</title>
<path fill="none" stroke="black" d="M182.42,-723.4C188.14,-723.4 193.85,-723.4 199.57,-723.4"/>
</g>
<!-- 6&#45;1 -->
<g id="node16" class="node">
<title>6&#45;1</title>
<ellipse fill="black" stroke="black" cx="181" cy="-652.5" rx="1.08" ry="1.08"/>
</g>
<!-- 5&#45;1&#45;&gt;6&#45;1 -->
<g id="edge15" class="edge">
<title>5&#45;1&#45;&gt;6&#45;1</title>
<path fill="none" stroke="black" d="M181,-721.96C181,-716.37 181,-659.24 181,-653.9"/>
</g>
<!-- 7&#45;0 -->
<g id="node18" class="node">
<title>7&#45;0</title>
<ellipse fill="black" stroke="black" cx="90" cy="-575.5" rx="1.08" ry="1.08"/>
</g>
<!-- 6&#45;0&#45;&gt;7&#45;0 -->
<g id="edge17" class="edge">
<title>6&#45;0&#45;&gt;7&#45;0</title>
<path fill="none" stroke="black" d="M90,-651.02C90,-644.93 90,-582.75 90,-576.94"/>
</g>
<!-- 6&#45;2 -->
<g id="node17" class="node">
<title>6&#45;2</title>
<polygon fill="lightyellow" stroke="black" points="344,-673 341,-677 320,-677 317,-673 200,-673 200,-632 344,-632 344,-673"/>
<text text-anchor="middle" x="272" y="-655.7" font-family="monospace" font-size="14.00">d</text>
<text text-anchor="middle" x="272" y="-639.2" font-family="monospace" font-size="14.00">(1)</text>
</g>
<!-- 6&#45;1&#45;&gt;6&#45;2 -->
<g id="edge16" class="edge">
<title>6&#45;1&#45;&gt;6&#45;2</title>
<path fill="none" stroke="black" d="M182.42,-652.5C188.14,-652.5 193.85,-652.5 199.57,-652.5"/>
</g>
<!-- 7&#45;2 -->
<g id="node19" class="node">
<title>7&#45;2</title>
<ellipse fill="black" stroke="black" cx="272" cy="-575.5" rx="1.08" ry="1.08"/>
</g>
<!-- 6&#45;2&#45;&gt;7&#45;2 -->
<g id="edge18" class="edge">
<title>6&#45;2&#45;&gt;7&#45;2</title>
<path fill="none" stroke="black" d="M272,-631.79C272,-610.96 272,-580.59 272,-576.88"/>
</g>
<!-- 8&#45;0 -->
<g id="node21" class="node">
<title>8&#45;0</title>
<ellipse fill="black" stroke="black" cx="90" cy="-504.6" rx="1.08" ry="1.08"/>
</g>
<!-- 7&#45;0&#45;&gt;8&#45;0 -->
<g id="edge20" class="edge">
<title>7&#45;0&#45;&gt;8&#45;0</title>
<path fill="none" stroke="black" d="M90,-574.06C90,-568.47 90,-511.34 90,-506"/>
</g>
<!-- 7&#45;3 -->
<g id="node20" class="node">
<title>7&#45;3</title>
<polygon fill="lightyellow" stroke="black" points="435,-596 432,-600 411,-600 408,-596 291,-596 291,-555 435,-555 435,-596"/>
<text text-anchor="middle" x="363" y="-578.7" font-family="monospace" font-size="14.00">e</text>
<text text-anchor="middle" x="363" y="-562.2" font-family="monospace" font-size="14.00">(1)</text>
</g>
<!-- 7&#45;2&#45;&gt;7&#45;3 -->
<g id="edge19" class="edge">
<title>7&#45;2&#45;&gt;7&#45;3</title>
<path fill="none" stroke="black" d="M273.42,-575.5C279.14,-575.5 284.85,-575.5 290.57,-575.5"/>
</g>
<!-- 8&#45;3 -->
<g id="node22" class="node">
<title>8&#45;3</title>
<ellipse fill="black" stroke="black" cx="363" cy="-504.6" rx="1.08" ry="1.08"/>
</g>
<!-- 7&#45;3&#45;&gt;8&#45;3 -->
<g id="edge21" class="edge">
<title>7&#45;3&#45;&gt;8&#45;3</title>
<path fill="none" stroke="black" d="M363,-554.57C363,-535.49 363,-509.15 363,-505.93"/>
</g>
<!-- 9&#45;0 -->
<g id="node24" class="node">
<title>9&#45;0</title>
<ellipse fill="black" stroke="black" cx="90" cy="-433.7" rx="1.08" ry="1.08"/>
</g>
<!-- 8&#45;0&#45;&gt;9&#45;0 -->
<g id="edge23" class="edge">
<title>8&#45;0&#45;&gt;9&#45;0</title>
<path fill="none" stroke="black" d="M90,-503.16C90,-497.57 90,-440.44 90,-435.1"/>
</g>
<!-- 8&#45;4 -->
<g id="node23" class="node">
<title>8&#45;4</title>
<polygon fill="lightblue" stroke="black" points="526,-519 382,-519 382,-490.2 526,-490.2 526,-519"/>
<text text-anchor="middle" x="454" y="-499.55" font-family="monospace" font-size="14.00">f&#45;file</text>
</g>
<!-- 8&#45;3&#45;&gt;8&#45;4 -->
<g id="edge22" class="edge">
<title>8&#45;3&#45;&gt;8&#45;4</title>
<path fill="none" stroke="black" d="M364.42,-504.6C370.14,-504.6 375.85,-504.6 381.57,-504.6"/>
</g>
<!-- 9&#45;1 -->
<g id="node25" class="node">
<title>9&#45;1</title>
<polygon fill="lightyellow" stroke="black" points="253,-454.2 250,-458.2 229,-458.2 226,-454.2 109,-454.2 109,-413.2 253,-413.2 253,-454.2"/>
<text text-anchor="middle" x="181" y="-436.9" font-family="monospace" font-size="14.00">e</text>
<text text-anchor="middle" x="181" y="-420.4" font-family="monospace" font-size="14.00">(0)</text>
</g>
<!-- 9&#45;0&#45;&gt;9&#45;1 -->
<g id="edge24" class="edge">
<title>9&#45;0&#45;&gt;9&#45;1</title>
<path fill="none" stroke="black" d="M91.42,-433.7C97.14,-433.7 102.85,-433.7 108.57,-433.7"/>
</g>
<!-- 10&#45;0 -->
<g id="node26" class="node">
<title>10&#45;0</title>
<ellipse fill="black" stroke="black" cx="90" cy="-362.8" rx="1.08" ry="1.08"/>
</g>
<!-- 9&#45;0&#45;&gt;10&#45;0 -->
<g id="edge25" class="edge">
<title>9&#45;0&#45;&gt;10&#45;0</title>
<path fill="none" stroke="black" d="M90,-432.26C90,-426.67 90,-369.54 90,-364.2"/>
</g>
<!-- 10&#45;1 -->
<g id="node27" class="node">
<title>10&#45;1</title>
<polygon fill="lightblue" stroke="black" points="253,-377.2 109,-377.2 109,-348.4 253,-348.4 253,-377.2"/>
<text text-anchor="middle" x="181" y="-357.75" font-family="monospace" font-size="14.00">fileSy...al.dot</text>
</g>
<!-- 10&#45;0&#45;&gt;10&#45;1 -->
<g id="edge26" class="edge">
<title>10&#45;0&#45;&gt;10&#45;1</title>
<path fill="none" stroke="black" d="M91.42,-362.8C97.14,-362.8 102.85,-362.8 108.57,-362.8"/>
</g>
<!-- 11&#45;0 -->
<g id="node28" class="node">
<title>11&#45;0</title>
<ellipse fill="black" stroke="black" cx="90" cy="-291.9" rx="1.08" ry="1.08"/>
</g>
<!-- 10&#45;0&#45;&gt;11&#45;0 -->
<g id="edge27" class="edge">
<title>10&#45;0&#45;&gt;11&#45;0</title>
<path fill="none" stroke="black" d="M90,-361.36C90,-355.77 90,-298.64 90,-293.3"/>
</g>
<!-- 11&#45;1 -->
<g id="node29" class="node">
<title>11&#45;1</title>
<polygon fill="lightyellow" stroke="black" points="253,-312.4 250,-316.4 229,-316.4 226,-312.4 109,-312.4 109,-271.4 253,-271.4 253,-312.4"/>
<text text-anchor="middle" x="181" y="-295.1" font-family="monospace" font-size="14.00">h</text>
<text text-anchor="middle" x="181" y="-278.6" font-family="monospace" font-size="14.00">(1)</text>
</g>
<!-- 11&#45;0&#45;&gt;11&#45;1 -->
<g id="edge28" class="edge">
<title>11&#45;0&#45;&gt;11&#45;1</title>
<path fill="none" stroke="black" d="M91.42,-291.9C97.14,-291.9 102.85,-291.9 108.57,-291.9"/>
</g>
<!-- 12&#45;0 -->
<g id="node30" class="node">
<title>12&#45;0</title>
<ellipse fill="black" stroke="black" cx="90" cy="-221" rx="1.08" ry="1.08"/>
</g>
<!-- 11&#45;0&#45;&gt;12&#45;0 -->
<g id="edge29" class="edge">
<title>11&#45;0&#45;&gt;12&#45;0</title>
<path fill="none" stroke="black" d="M90,-290.46C90,-284.87 90,-227.74 90,-222.4"/>
</g>
<!-- 12&#45;1 -->
<g id="node31" class="node">
<title>12&#45;1</title>
<ellipse fill="black" stroke="black" cx="181" cy="-221" rx="1.08" ry="1.08"/>
</g>
<!-- 11&#45;1&#45;&gt;12&#45;1 -->
<g id="edge30" class="edge">
<title>11&#45;1&#45;&gt;12&#45;1</title>
<path fill="none" stroke="black" d="M181,-270.97C181,-251.89 181,-225.55 181,-222.33"/>
</g>
<!-- 13&#45;0 -->
<g id="node33" class="node">
<title>13&#45;0</title>
<ellipse fill="black" stroke="black" cx="90" cy="-156.2" rx="1.08" ry="1.08"/>
</g>
<!-- 12&#45;0&#45;&gt;13&#45;0 -->
<g id="edge32" class="edge">
<title>12&#45;0&#45;&gt;13&#45;0</title>
<path fill="none" stroke="black" d="M90,-219.6C90,-214.42 90,-160.72 90,-157.36"/>
</g>
<!-- 12&#45;2 -->
<g id="node32" class="node">
<title>12&#45;2</title>
<polygon fill="lightblue" stroke="black" points="344,-235.4 200,-235.4 200,-206.6 344,-206.6 344,-235.4"/>
<text text-anchor="middle" x="272" y="-215.95" font-family="monospace" font-size="14.00">a&#45;file</text>
</g>
<!-- 12&#45;1&#45;&gt;12&#45;2 -->
<g id="edge31" class="edge">
<title>12&#45;1&#45;&gt;12&#45;2</title>
<path fill="none" stroke="black" d="M182.42,-221C188.14,-221 193.85,-221 199.57,-221"/>
</g>
<!-- 13&#45;1 -->
<g id="node34" class="node">
<title>13&#45;1</title>
<polygon fill="lightblue" stroke="black" points="253,-170.6 109,-170.6 109,-141.8 253,-141.8 253,-170.6"/>
<text text-anchor="middle" x="181" y="-151.15" font-family="monospace" font-size="14.00">x&#45;root</text>
</g>
<!-- 13&#45;0&#45;&gt;13&#45;1 -->
<g id="edge33" class="edge">
<title>13&#45;0&#45;&gt;13&#45;1</title>
<path fill="none" stroke="black" d="M91.42,-156.2C97.14,-156.2 102.85,-156.2 108.57,-156.2"/>
</g>
<!-- 14&#45;0 -->
<g id="node35" class="node">
<title>14&#45;0</title>
<ellipse fill="black" stroke="black" cx="90" cy="-85.3" rx="1.08" ry="1.08"/>
</g>
<!-- 13&#45;0&#45;&gt;14&#45;0 -->
<g id="edge34" class="edge">
<title>13&#45;0&#45;&gt;14&#45;0</title>
<path fill="none" stroke="black" d="M90,-154.76C90,-149.17 90,-92.04 90,-86.7"/>
</g>
<!-- 14&#45;1 -->
<g id="node36" class="node">
<title>14&#45;1</title>
<polygon fill="lightyellow" stroke="black" points="253,-105.8 250,-109.8 229,-109.8 226,-105.8 109,-105.8 109,-64.8 253,-64.8 253,-105.8"/>
<text text-anchor="middle" x="181" y="-88.5" font-family="monospace" font-size="14.00">y</text>
<text text-anchor="middle" x="181" y="-72" font-family="monospace" font-size="14.00">(1)</text>
</g>
<!-- 14&#45;0&#45;&gt;14&#45;1 -->
<g id="edge35" class="edge">
<title>14&#45;0&#45;&gt;14&#45;1</title>
<path fill="none" stroke="black" d="M91.42,-85.3C97.14,-85.3 102.85,-85.3 108.57,-85.3"/>
</g>
<!-- 15&#45;0 -->
<g id="node37" class="node">
<title>15&#45;0</title>
<ellipse fill="black" stroke="black" cx="90" cy="-14.4" rx="1.08" ry="1.08"/>
</g>
<!-- 14&#45;0&#45;&gt;15&#45;0 -->
<g id="edge36" class="edge">
<title>14&#45;0&#45;&gt;15&#45;0</title>
<path fill="none" stroke="black" d="M90,-83.86C90,-78.27 90,-21.14 90,-15.8"/>
</g>
<!-- 15&#45;1 -->
<g id="node38" class="node">
<title>15&#45;1</title>
<ellipse fill="black" stroke="black" cx="181" cy="-14.4" rx="1.08" ry="1.08"/>
</g>
<!-- 14&#45;1&#45;&gt;15&#45;1 -->
<g id="edge37" class="edge">
<title>14&#45;1&#45;&gt;15&#45;1</title>
<path fill="none" stroke="black" d="M181,-64.37C181,-45.29 181,-18.95 181,-15.73"/>
</g>
<!-- 15&#45;2 -->
<g id="node39" class="node">
<title>15&#45;2</title>
<polygon fill="lightblue" stroke="black" points="344,-28.8 200,-28.8 200,0 344,0 344,-28.8"/>
<text text-anchor="middle" x="272" y="-9.35" font-family="monospace" font-size="14.00">a&#45;file</text>
</g>
<!-- 15&#45;1&#45;&gt;15&#45;2 -->
<g id="edge38" class="edge">
<title>15&#45;1&#45;&gt;15&#45;2</title>
<path fill="none" stroke="black" d="M182.42,-14.4C188.14,-14.4 193.85,-14.4 199.57,-14.4"/>
</g>
</g>
</svg>
